<?xml version="1.0" encoding="utf-8"?>
<!-- Generator: Adobe Illustrator 22.1.0, SVG Export Plug-In . SVG Version: 6.00 Build 0)  -->
<svg version="1.1" id="Layer_1" xmlns="http://www.w3.org/2000/svg" xmlns:xlink="http://www.w3.org/1999/xlink" x="0px" y="0px"
	 viewBox="0 0 80 80" style="enable-background:new 0 0 80 80;" xml:space="preserve">
<style type="text/css">
	.st0{fill:#238AAF;}
	.st1{fill:#6D6E70;}
	.st2{fill:#404041;}
	.st3{fill:#FFFFFF;}
	.st4{fill:#C1C0C0;}
	.st5{fill:#F05A26;}
	.st6{fill:#F69220;}
	.st7{fill:#F9EC23;}
</style>
<g id="Layer_2_1_">
	<rect class="st0" width="80" height="80"/>
</g>
<g id="Layer_1_1_">
	<g>
		<g>
			<path class="st1" d="M80,19.1H36.4L7.7,26c0,0-4.5,9-4.5,12.6s4.5,12.9,4.5,12.9l28.7,6.1L80,57.7"/>
		</g>
		<g>
			<path class="st2" d="M69.4,27.6L64.9,21h-1.3l-1.9,5.1l-2.8-2.9H58l-1,1.5l0.8,1.6l0.7,1.5l-1.4,1.4l1.4,1.9L57,33.6l1.6,1.6
				l3.1-3.4l2,5.4h1.2l4.7-6.8c0,0,4-0.2,4.8-1.2C75.1,28.1,69.4,27.6,69.4,27.6z"/>
			<path class="st3" d="M73.5,29c0,0-1.4-1-2.2,0C71.4,29.1,72.3,30.3,73.5,29z"/>
			<rect x="65.8" y="22.6" class="st2" width="1.6" height="0.4"/>
			<rect x="66.6" y="24.6" class="st2" width="1.6" height="0.4"/>
			<rect x="66.6" y="33.3" class="st2" width="1.6" height="0.4"/>
			<rect x="65.6" y="35.3" class="st2" width="1.6" height="0.4"/>
		</g>
		<rect x="27.8" y="37.5" class="st4" width="7.2" height="2.3"/>
		<rect x="43.8" y="37.5" class="st4" width="7.2" height="2.3"/>
		<rect x="57.8" y="37.5" class="st4" width="7.2" height="2.3"/>
		<rect x="72.8" y="37.6" class="st4" width="7.2" height="2.3"/>
		<g>
			<path class="st2" d="M70.1,46.1l-4.5-6.6h-1.3l-1.9,5.1l-2.8-2.9h-0.8l-0.9,1.5l0.8,1.6l0.7,1.5L58,47.7l1.4,1.9l-1.5,2.6
				l1.6,1.6l3.1-3.4l2,5.4h1.2l4.7-6.8c0,0,4-0.2,4.8-1.2C75.8,46.6,70.1,46.1,70.1,46.1z"/>
			<path class="st3" d="M74.3,47.5c0,0-1.4-1-2.2,0C72.1,47.6,73.1,48.8,74.3,47.5z"/>
			<rect x="66.6" y="41.1" class="st2" width="1.6" height="0.4"/>
			<rect x="67.4" y="43.1" class="st2" width="1.6" height="0.4"/>
			<rect x="67.3" y="51.9" class="st2" width="1.6" height="0.4"/>
			<rect x="66.4" y="53.8" class="st2" width="1.6" height="0.4"/>
		</g>
		<g>
			<path class="st2" d="M50.2,27.5l-4.5-6.6h-1.3L42.5,26l-2.8-2.9h-0.8L38,24.6l0.8,1.6l0.7,1.5L37.9,29l1.4,1.9l-1.5,2.6l1.6,1.6
				l3.1-3.4l2,5.4h1.2l4.7-6.8c0,0,4-0.2,4.8-1.2C55.9,28,50.2,27.5,50.2,27.5z"/>
			<path class="st3" d="M54.4,28.9c0,0-1.4-1-2.2,0C52.2,28.9,53.1,30.1,54.4,28.9z"/>
			<rect x="46.6" y="22.4" class="st2" width="1.6" height="0.4"/>
			<rect x="47.4" y="24.4" class="st2" width="1.6" height="0.4"/>
			<rect x="47.4" y="33.1" class="st2" width="1.6" height="0.4"/>
			<rect x="46.5" y="35.1" class="st2" width="1.6" height="0.4"/>
		</g>
		<g>
			<path class="st2" d="M51,46l-4.5-6.6h-1.3l-1.9,5.1l-2.8-2.9h-0.8l-0.9,1.5l0.8,1.6l0.7,1.5l-1.4,1.4l1.4,1.9L38.6,52l1.6,1.6
				l3.1-3.4l2,5.4h1.2l4.7-6.8c0,0,4-0.2,4.8-1.2S51,46,51,46z"/>
			<path class="st3" d="M55.1,47.4c0,0-1.4-1-2.2,0C52.9,47.4,53.9,48.6,55.1,47.4z"/>
			<rect x="47.3" y="41" class="st2" width="1.6" height="0.4"/>
			<rect x="48.1" y="43" class="st2" width="1.6" height="0.4"/>
			<rect x="48.2" y="51.7" class="st2" width="1.6" height="0.4"/>
			<rect x="47.2" y="53.6" class="st2" width="1.6" height="0.4"/>
		</g>
		<g>
			<path class="st2" d="M21,37.3l-4.5-6.6h-1.3l-1.9,5.1l-2.8-2.9H9.6l-0.9,1.5L9.4,36l0.7,1.5l-1.4,1.4l1.4,1.9l-1.5,2.6l1.6,1.6
				l3.1-3.4l2,5.4h1.2l4.7-6.8c0,0,4-0.2,4.8-1.2C26.6,37.8,21,37.3,21,37.3z"/>
			<path class="st3" d="M25.1,38.7c0,0-1.4-1-2.2,0C22.9,38.8,23.9,40,25.1,38.7z"/>
			<rect x="17.4" y="32.3" class="st2" width="1.6" height="0.4"/>
			<rect x="18.2" y="34.3" class="st2" width="1.6" height="0.4"/>
			<rect x="18.2" y="43" class="st2" width="1.6" height="0.4"/>
			<rect x="17.2" y="45" class="st2" width="1.6" height="0.4"/>
		</g>
	</g>
</g>
<g>
	<g>
		<path class="st5" d="M58,37.2c0,0-6.7,3.8-15.8-3.4c0,0-3.4-3.3-10.8-1.8c0,0,2.8-2.6,7.5-1.8c0,0-16.2-5.3-16.8,11.3
			c0,0,5.1,15.8,20.6,5.8c0,0-6.3,0.9-7.7-1.1c0,0,1.4-3.3,8.4-2.3c0,0,5.6,1.8,9.5-1.5c0,0-4.6,0-5.6-2.1
			C47.3,40.4,55,42.8,58,37.2z"/>
		<path class="st6" d="M23.5,44.4c1.8,1.7,4.8,2.9,9.6-0.2c0,0-3.6,0.5-4.4-0.6c0,0,0.8-1.9,4.8-1.3c0,0,3.2,1,5.4-0.8
			c0,0-2.6,0-3.2-1.2c0,0,4.5,1.4,6.1-1.8c0,0-3.8,2.2-9-1.9c0,0-1.9-1.9-6.2-1c0,0,1.6-1.5,4.3-1c0,0-4.6-1.5-7.5,1
			c-0.7,1.6-1.2,3.6-1.2,6.2C22.1,41.5,22.5,42.8,23.5,44.4z"/>
		<path class="st7" d="M23,43.4c1.2,0.6,2.8,0.8,5.2-0.7c0,0-2.3,0.3-2.8-0.4c0,0,0.5-1.2,3-0.8c0,0,2,0.6,3.4-0.5c0,0-1.6,0-2-0.8
			c0,0,2.8,0.9,3.9-1.1c0,0-2.4,1.4-5.7-1.2c0,0-1.2-1.2-3.9-0.6c0,0,1-0.9,2.7-0.6c0,0-2.1-0.7-3.8,0c-0.5,1.4-0.7,3-0.8,5
			C22.1,41.5,22.3,42.3,23,43.4z"/>
	</g>
</g>
</svg>
