<?xml version="1.0" encoding="utf-8"?>
<!-- Generator: Adobe Illustrator 22.1.0, SVG Export Plug-In . SVG Version: 6.00 Build 0)  -->
<svg version="1.1" id="Layer_1" xmlns="http://www.w3.org/2000/svg" xmlns:xlink="http://www.w3.org/1999/xlink" x="0px" y="0px"
	 viewBox="0 0 80 80" style="enable-background:new 0 0 80 80;" xml:space="preserve">
<style type="text/css">
	.st0{fill:#238AAF;}
	.st1{fill:#6D6E70;}
	.st2{fill:#231F20;}
	.st3{fill:#404041;}
	.st4{fill:#929497;}
	.st5{fill:none;stroke:#231F20;stroke-miterlimit:10;}
	.st6{fill:#C9D2D5;}
	.st7{fill:#ACBCC2;}
	.st8{fill:#ED1E3E;}
	.st9{fill:#EE483D;}
	.st10{fill:#E3E8E9;}
	.st11{fill:#F05A26;}
	.st12{fill:#F69220;}
	.st13{fill:#F9EC23;}
</style>
<g id="Layer_2_1_">
	<rect class="st0" width="80" height="80"/>
</g>
<g id="Layer_1_1_">
	<g>
		<g>
			<polyline class="st1" points="0,23 46,23 76.3,39.8 76.3,45.5 46,61.5 0,61.6 			"/>
		</g>
		<path class="st2" d="M32.1,44.2l-9.5,11.7c-1.1,1.3-3,1.5-4.3,0.3l-0.9-0.9c-1-0.9-1.2-2.5-0.5-3.7l4.7-7.9c0.6-1,0.5-2.3-0.1-3.2
			l-5-7.1c-0.9-1.2-0.7-2.9,0.4-3.9l1-0.9c1.2-1.1,3.1-1,4.2,0.2l10,11.4C33,41.5,33,43.1,32.1,44.2z"/>
		<path class="st3" d="M2.7,52.3V32.7c0-2.1,1.7-3.7,3.7-3.7l0,0c2.1,0,3.7,1.7,3.7,3.7v19.7c0,2.1-1.7,3.7-3.7,3.7l0,0
			C4.3,56.1,2.7,54.4,2.7,52.3z"/>
		<path class="st4" d="M2.7,46.2v-7.5c0-2.1,1.7-3.7,3.7-3.7l0,0c2.1,0,3.7,1.7,3.7,3.7v7.5c0,2.1-1.7,3.7-3.7,3.7l0,0
			C4.3,50,2.7,48.3,2.7,46.2z"/>
		<line class="st5" x1="7.7" y1="38.6" x2="0.4" y2="31.2"/>
		<line class="st5" x1="7.6" y1="41.7" x2="0.4" y2="34.5"/>
		<line class="st5" x1="7.5" y1="45" x2="0.4" y2="37.9"/>
		<line class="st5" x1="7.7" y1="49.2" x2="0.4" y2="41.9"/>
		<g>
			<polygon class="st6" points="50.7,45.1 48.4,49.6 44.8,49.6 44.8,42.4 50.7,42.4 			"/>
			<polygon class="st7" points="48.5,35.2 50.8,39.8 50.7,42.4 44.8,42.4 44.9,35.2 			"/>
			<path class="st8" d="M58.6,39.9H62c1.4,0,2.6,1.2,2.6,2.6l-7.7,0.8L58.6,39.9z"/>
			<path class="st9" d="M64.6,42.5c0,1.4-1.2,2.6-2.6,2.6h-3.4l-1.7-2.6H64.6z"/>
			<polygon class="st6" points="58.6,42.5 50.4,44.4 42.2,42.4 42.2,39.8 58.6,39.9 			"/>
			
				<rect x="49.2" y="35.5" transform="matrix(6.917311e-03 -1 1 6.917311e-03 6.363 93.8947)" class="st10" width="2.6" height="16.4"/>
		</g>
		<path class="st3" d="M35.4,55.6l2.9-0.7c1.1-0.3,2.2,0.4,2.4,1.5l0.7,2.8c0.3,1.1-0.4,2.2-1.5,2.4L37,62.3
			c-1.1,0.3-2.2-0.4-2.4-1.5L33.9,58C33.7,57,34.3,55.9,35.4,55.6z"/>
		<path class="st3" d="M38.1,59.9L38.1,59.9c0.6-0.1,1.2,0.2,1.4,0.8l0.9,3.8c0.1,0.6-0.2,1.2-0.8,1.4l0,0c-0.6,0.1-1.2-0.2-1.4-0.8
			l-0.9-3.8C37.1,60.7,37.5,60.1,38.1,59.9z"/>
		<path class="st3" d="M27.5,57.2l2.9-0.7c1.1-0.3,2.2,0.4,2.4,1.5l0.7,2.8c0.3,1.1-0.4,2.2-1.5,2.4l-2.9,0.7
			c-1.1,0.3-2.2-0.4-2.4-1.5L26,59.6C25.8,58.5,26.4,57.4,27.5,57.2z"/>
		<path class="st3" d="M30.1,61.5L30.1,61.5c0.6-0.1,1.2,0.2,1.4,0.8l0.9,3.8c0.1,0.6-0.2,1.2-0.8,1.4l0,0c-0.6,0.1-1.2-0.2-1.4-0.8
			l-0.9-3.8C29.2,62.2,29.5,61.6,30.1,61.5z"/>
		<path class="st3" d="M34.2,27.1l2.9,0.7c1.1,0.3,2.2-0.4,2.4-1.5l0.7-2.8c0.3-1.1-0.4-2.2-1.5-2.4l-2.9-0.7
			c-1.1-0.3-2.2,0.4-2.4,1.5l-0.7,2.8C32.5,25.7,33.2,26.8,34.2,27.1z"/>
		<path class="st3" d="M36.9,22.8L36.9,22.8c0.6,0.1,1.2-0.2,1.4-0.8l0.9-3.8c0.1-0.6-0.2-1.2-0.8-1.4l0,0c-0.6-0.1-1.2,0.2-1.4,0.8
			l-0.9,3.8C35.9,22,36.3,22.6,36.9,22.8z"/>
		<path class="st3" d="M43.7,28.1l2.9,0.7c1.1,0.3,2.2-0.4,2.4-1.5l0.7-2.8c0.3-1.1-0.4-2.2-1.5-2.4l-2.9-0.7
			c-1.1-0.3-2.2,0.4-2.4,1.5l-0.7,2.8C42,26.7,42.7,27.8,43.7,28.1z"/>
		<path class="st3" d="M46.4,23.8L46.4,23.8c0.6,0.1,1.2-0.2,1.4-0.8l0.9-3.8c0.1-0.6-0.2-1.2-0.8-1.4l0,0c-0.6-0.1-1.2,0.2-1.4,0.8
			l-0.9,3.8C45.4,23,45.8,23.6,46.4,23.8z"/>
		<path class="st3" d="M26.2,26.5l2.9,0.7c1.1,0.3,2.2-0.4,2.4-1.5l0.7-2.8c0.3-1.1-0.4-2.2-1.5-2.4l-2.9-0.7
			c-1.1-0.3-2.2,0.4-2.4,1.5l-0.7,2.8C24.4,25.1,25.1,26.2,26.2,26.5z"/>
		<path class="st3" d="M28.8,22.2L28.8,22.2c0.6,0.1,1.2-0.2,1.4-0.8l0.9-3.8c0.1-0.6-0.2-1.2-0.8-1.4l0,0c-0.6-0.1-1.2,0.2-1.4,0.8
			L28,20.8C27.8,21.4,28.2,22.1,28.8,22.2z"/>
		<path class="st3" d="M44.4,54.5l2.9-0.7c1.1-0.3,2.2,0.4,2.4,1.5l0.7,2.8c0.3,1.1-0.4,2.2-1.5,2.4L46,61.1
			c-1.1,0.3-2.2-0.4-2.4-1.5l-0.7-2.8C42.7,55.8,43.3,54.7,44.4,54.5z"/>
		<path class="st3" d="M47.1,58.8L47.1,58.8c0.6-0.1,1.2,0.2,1.4,0.8l0.9,3.8c0.1,0.6-0.2,1.2-0.8,1.4l0,0c-0.6,0.1-1.2-0.2-1.4-0.8
			l-0.9-3.8C46.1,59.5,46.5,58.9,47.1,58.8z"/>
	</g>
</g>
<g>
	<g>
		<path class="st11" d="M58,37.2c0,0-6.7,3.8-15.8-3.4c0,0-3.4-3.3-10.8-1.8c0,0,2.8-2.6,7.5-1.8c0,0-16.2-5.3-16.8,11.3
			c0,0,5.1,15.8,20.6,5.8c0,0-6.3,0.9-7.7-1.1c0,0,1.4-3.3,8.4-2.3c0,0,5.6,1.8,9.5-1.5c0,0-4.6,0-5.6-2.1
			C47.3,40.4,55,42.8,58,37.2z"/>
		<path class="st12" d="M23.5,44.4c1.8,1.7,4.8,2.9,9.6-0.2c0,0-3.6,0.5-4.4-0.6c0,0,0.8-1.9,4.8-1.3c0,0,3.2,1,5.4-0.8
			c0,0-2.6,0-3.2-1.2c0,0,4.5,1.4,6.1-1.8c0,0-3.8,2.2-9-1.9c0,0-1.9-1.9-6.2-1c0,0,1.6-1.5,4.3-1c0,0-4.6-1.5-7.5,1
			c-0.7,1.6-1.2,3.6-1.2,6.2C22.1,41.5,22.5,42.8,23.5,44.4z"/>
		<path class="st13" d="M23,43.4c1.2,0.6,2.8,0.8,5.2-0.7c0,0-2.3,0.3-2.8-0.4c0,0,0.5-1.2,3-0.8c0,0,2,0.6,3.4-0.5c0,0-1.6,0-2-0.8
			c0,0,2.8,0.9,3.9-1.1c0,0-2.4,1.4-5.7-1.2c0,0-1.2-1.2-3.9-0.6c0,0,1-0.9,2.7-0.6c0,0-2.1-0.7-3.8,0c-0.5,1.4-0.7,3-0.8,5
			C22.1,41.5,22.3,42.3,23,43.4z"/>
	</g>
</g>
</svg>
