<?xml version="1.0" encoding="utf-8"?>
<!-- Generator: Adobe Illustrator 22.1.0, SVG Export Plug-In . SVG Version: 6.00 Build 0)  -->
<svg version="1.1" id="Layer_1" xmlns="http://www.w3.org/2000/svg" xmlns:xlink="http://www.w3.org/1999/xlink" x="0px" y="0px"
	 viewBox="0 0 80 80" style="enable-background:new 0 0 80 80;" xml:space="preserve">
<style type="text/css">
	.st0{fill:#238AAF;}
	.st1{fill:#6D6E70;}
	.st2{fill:#231F20;}
	.st3{fill:#404041;}
	.st4{fill:#929497;}
	.st5{fill:none;stroke:#231F20;stroke-miterlimit:10;}
	.st6{fill:#C9D2D5;}
	.st7{fill:#ACBCC2;}
	.st8{fill:#ED1E3E;}
	.st9{fill:#EE483D;}
	.st10{fill:#E3E8E9;}
	.st11{fill:#F05A26;}
	.st12{fill:#F69220;}
	.st13{fill:#F9EC23;}
</style>
<g id="Layer_2_1_">
	<rect class="st0" width="80" height="80"/>
</g>
<g id="Layer_1_1_">
	<g>
		<g>
			<polyline class="st1" points="21.1,80 21.1,34 38,3.7 43.7,3.7 59.7,34 59.7,80 			"/>
		</g>
		<path class="st2" d="M42.3,47.9L54,57.4c1.3,1.1,1.5,3,0.3,4.3l-0.9,0.9c-0.9,1-2.5,1.2-3.7,0.5L42,58.4c-1-0.6-2.3-0.5-3.2,0.1
			l-7.1,5c-1.2,0.9-2.9,0.7-3.9-0.4l-0.9-1c-1.1-1.2-1-3.1,0.2-4.2l11.4-10C39.6,47,41.2,47,42.3,47.9z"/>
		<path class="st3" d="M50.5,77.3H30.8c-2.1,0-3.7-1.7-3.7-3.8l0,0c0-2.1,1.7-3.7,3.7-3.7h19.7c2.1,0,3.7,1.7,3.7,3.7l0,0
			C54.2,75.7,52.6,77.3,50.5,77.3z"/>
		<path class="st4" d="M44.4,77.3h-7.5c-2.1,0-3.7-1.7-3.7-3.8l0,0c0-2.1,1.7-3.7,3.7-3.7h7.5c2.1,0,3.7,1.7,3.7,3.7l0,0
			C48.2,75.7,46.5,77.3,44.4,77.3z"/>
		<line class="st5" x1="36.7" y1="72.3" x2="29.4" y2="79.6"/>
		<line class="st5" x1="39.9" y1="72.4" x2="32.6" y2="79.6"/>
		<line class="st5" x1="43.2" y1="72.5" x2="36" y2="79.6"/>
		<line class="st5" x1="47.4" y1="72.3" x2="40.1" y2="79.6"/>
		<g>
			<polygon class="st6" points="43.2,29.3 47.8,31.6 47.8,35.2 40.6,35.2 40.6,29.3 			"/>
			<polygon class="st7" points="33.4,31.5 38,29.2 40.6,29.3 40.6,35.2 33.4,35.1 			"/>
			<path class="st8" d="M38,21.4V18c0-1.4,1.2-2.6,2.6-2.6l0.8,7.7L38,21.4z"/>
			<path class="st9" d="M40.7,15.4c1.4,0,2.6,1.2,2.6,2.6v3.4l-2.6,1.7V15.4z"/>
			<polygon class="st6" points="40.7,21.4 42.6,29.6 40.5,37.8 37.9,37.8 38,21.4 			"/>
			
				<rect x="33.7" y="28.3" transform="matrix(6.917311e-03 -1 1 6.917311e-03 12.0107 71.318)" class="st10" width="16.4" height="2.6"/>
		</g>
		<path class="st3" d="M53.8,44.6l-0.7-2.9c-0.3-1.1,0.4-2.2,1.5-2.4l2.8-0.7c1.1-0.3,2.2,0.4,2.4,1.5l0.7,2.9
			c0.3,1.1-0.4,2.2-1.5,2.4l-2.8,0.7C55.1,46.3,54.1,45.7,53.8,44.6z"/>
		<path class="st3" d="M58.1,41.9L58.1,41.9c-0.1-0.6,0.2-1.2,0.8-1.4l3.8-0.9c0.6-0.1,1.2,0.2,1.4,0.8l0,0c0.1,0.6-0.2,1.2-0.8,1.4
			l-3.8,0.9C58.8,42.9,58.2,42.5,58.1,41.9z"/>
		<path class="st3" d="M55.3,52.5l-0.7-2.9c-0.3-1.1,0.4-2.2,1.5-2.4l2.8-0.7c1.1-0.3,2.2,0.4,2.4,1.5l0.7,2.9
			c0.3,1.1-0.4,2.2-1.5,2.4L57.8,54C56.7,54.2,55.6,53.6,55.3,52.5z"/>
		<path class="st3" d="M59.6,49.9L59.6,49.9c-0.1-0.6,0.2-1.2,0.8-1.4l3.8-0.9c0.6-0.1,1.2,0.2,1.4,0.8l0,0c0.1,0.6-0.2,1.2-0.8,1.4
			L61,50.7C60.4,50.8,59.8,50.5,59.6,49.9z"/>
		<path class="st3" d="M25.3,45.8l0.7-2.9c0.3-1.1-0.4-2.2-1.5-2.4l-2.8-0.7c-1.1-0.3-2.2,0.4-2.4,1.5l-0.7,2.9
			c-0.3,1.1,0.4,2.2,1.5,2.4l2.8,0.7C23.9,47.5,25,46.8,25.3,45.8z"/>
		<path class="st3" d="M21,43.1L21,43.1c0.1-0.6-0.2-1.2-0.8-1.4l-3.8-0.9c-0.6-0.1-1.2,0.2-1.4,0.8l0,0c-0.1,0.6,0.2,1.2,0.8,1.4
			l3.8,0.9C20.2,44.1,20.8,43.7,21,43.1z"/>
		<path class="st3" d="M26.3,36.3l0.7-2.9c0.3-1.1-0.4-2.2-1.5-2.4l-2.8-0.7c-1.1-0.3-2.2,0.4-2.4,1.5l-0.7,2.9
			c-0.3,1.1,0.4,2.2,1.5,2.4l2.8,0.7C24.9,38,26,37.3,26.3,36.3z"/>
		<path class="st3" d="M22,33.6L22,33.6c0.1-0.6-0.2-1.2-0.8-1.4l-3.8-0.9c-0.6-0.1-1.2,0.2-1.4,0.8l0,0c-0.1,0.6,0.2,1.2,0.8,1.4
			l3.8,0.9C21.2,34.6,21.8,34.2,22,33.6z"/>
		<path class="st3" d="M24.7,53.8l0.7-2.9c0.3-1.1-0.4-2.2-1.5-2.4l-2.8-0.7c-1.1-0.3-2.2,0.4-2.4,1.5L18,52.2
			c-0.3,1.1,0.4,2.2,1.5,2.4l2.8,0.7C23.3,55.6,24.4,54.9,24.7,53.8z"/>
		<path class="st3" d="M20.4,51.2L20.4,51.2c0.1-0.6-0.2-1.2-0.8-1.4l-3.8-0.9c-0.6-0.1-1.2,0.2-1.4,0.8l0,0
			c-0.1,0.6,0.2,1.2,0.8,1.4L19,52C19.6,52.2,20.2,51.8,20.4,51.2z"/>
		<path class="st3" d="M52.6,35.6l-0.7-2.9c-0.3-1.1,0.4-2.2,1.5-2.4l2.8-0.7c1.1-0.3,2.2,0.4,2.4,1.5l0.7,2.9
			c0.3,1.1-0.4,2.2-1.5,2.4L55,37.1C54,37.3,52.9,36.7,52.6,35.6z"/>
		<path class="st3" d="M56.9,32.9L56.9,32.9c-0.1-0.6,0.2-1.2,0.8-1.4l3.8-0.9c0.6-0.1,1.2,0.2,1.4,0.8l0,0c0.1,0.6-0.2,1.2-0.8,1.4
			l-3.8,0.9C57.7,33.9,57.1,33.5,56.9,32.9z"/>
	</g>
</g>
<g>
	<g>
		<path class="st11" d="M37.2,22c0,0,3.8,6.7-3.4,15.8c0,0-3.3,3.4-1.8,10.8c0,0-2.6-2.8-1.8-7.5c0,0-5.3,16.2,11.3,16.8
			c0,0,15.8-5.1,5.8-20.6c0,0,0.9,6.3-1.1,7.7c0,0-3.3-1.4-2.3-8.4c0,0,1.8-5.6-1.5-9.5c0,0,0,4.6-2.1,5.6
			C40.4,32.8,42.8,25,37.2,22z"/>
		<path class="st12" d="M44.4,56.5c1.7-1.8,2.9-4.8-0.2-9.6c0,0,0.5,3.6-0.6,4.4c0,0-1.9-0.8-1.3-4.8c0,0,1-3.2-0.8-5.4
			c0,0,0,2.6-1.2,3.2c0,0,1.4-4.5-1.8-6.1c0,0,2.2,3.8-1.9,9c0,0-1.9,1.9-1,6.2c0,0-1.5-1.6-1-4.3c0,0-1.5,4.6,1,7.5
			c1.6,0.7,3.6,1.2,6.2,1.2C41.5,57.9,42.8,57.5,44.4,56.5z"/>
		<path class="st13" d="M43.4,57c0.6-1.2,0.8-2.8-0.7-5.2c0,0,0.3,2.3-0.4,2.8c0,0-1.2-0.5-0.8-3c0,0,0.6-2-0.5-3.4c0,0,0,1.6-0.8,2
			c0,0,0.9-2.8-1.1-3.9c0,0,1.4,2.4-1.2,5.7c0,0-1.2,1.2-0.6,3.9c0,0-0.9-1-0.6-2.7c0,0-0.7,2.1,0,3.8c1.4,0.5,3,0.7,5,0.8
			C41.5,57.9,42.3,57.7,43.4,57z"/>
	</g>
</g>
</svg>
