<?xml version="1.0" encoding="utf-8"?>
<!-- Generator: Adobe Illustrator 22.1.0, SVG Export Plug-In . SVG Version: 6.00 Build 0)  -->
<svg version="1.1" id="Layer_1" xmlns="http://www.w3.org/2000/svg" xmlns:xlink="http://www.w3.org/1999/xlink" x="0px" y="0px"
	 viewBox="0 0 80 80" style="enable-background:new 0 0 80 80;" xml:space="preserve">
<style type="text/css">
	.st0{fill:#238AAF;}
	.st1{fill:#6D6E70;}
	.st2{fill:#404041;}
	.st3{fill:#FFFFFF;}
	.st4{fill:#C1C0C0;}
	.st5{fill:#F05A26;}
	.st6{fill:#F69220;}
	.st7{fill:#F9EC23;}
</style>
<g id="Layer_2_1_">
	<rect class="st0" width="80" height="80"/>
</g>
<g id="Layer_1_1_">
	<g>
		<g>
			<path class="st1" d="M20.7,0v43.6l6.9,28.7c0,0,9,4.5,12.6,4.5c3.6,0,12.9-4.5,12.9-4.5l6.1-28.7L59.3,0"/>
		</g>
		<g>
			<path class="st2" d="M29.2,10.6l-6.6,4.5v1.3l5.1,1.9l-2.9,2.8V22l1.5,0.9l1.6-0.8l1.5-0.7l1.4,1.4l1.9-1.4l2.6,1.5l1.6-1.6
				l-3.4-3.1l5.4-2V15L32,10.4c0,0-0.2-4-1.2-4.8C29.7,4.9,29.2,10.6,29.2,10.6z"/>
			<path class="st3" d="M30.7,6.5c0,0-1,1.4,0,2.2C30.7,8.6,31.9,7.7,30.7,6.5z"/>
			<rect x="24.2" y="12.6" class="st2" width="0.4" height="1.6"/>
			<rect x="26.2" y="11.8" class="st2" width="0.4" height="1.6"/>
			<rect x="35" y="11.8" class="st2" width="0.4" height="1.6"/>
			<rect x="36.9" y="12.8" class="st2" width="0.4" height="1.6"/>
		</g>
		<rect x="39.1" y="45" class="st4" width="2.3" height="7.2"/>
		<rect x="39.1" y="29" class="st4" width="2.3" height="7.2"/>
		<rect x="39.1" y="15" class="st4" width="2.3" height="7.2"/>
		<rect x="39.1" class="st4" width="2.3" height="7.2"/>
		<g>
			<path class="st2" d="M47.7,9.9l-6.6,4.5v1.3l5.1,1.9l-2.9,2.8v0.8l1.5,0.9l1.6-0.8l1.5-0.7l1.4,1.4l1.9-1.4l2.6,1.5l1.6-1.6
				L52,17.4l5.4-2v-1.2l-6.8-4.7c0,0-0.2-4-1.2-4.8C48.2,4.2,47.7,9.9,47.7,9.9z"/>
			<path class="st3" d="M49.2,5.7c0,0-1,1.4,0,2.2C49.2,7.9,50.4,6.9,49.2,5.7z"/>
			<rect x="42.7" y="11.9" class="st2" width="0.4" height="1.6"/>
			<rect x="44.7" y="11.1" class="st2" width="0.4" height="1.6"/>
			<rect x="53.5" y="11" class="st2" width="0.4" height="1.6"/>
			<rect x="55.4" y="12.1" class="st2" width="0.4" height="1.6"/>
		</g>
		<g>
			<path class="st2" d="M29.1,29.8l-6.6,4.5v1.3l5.1,1.9l-2.9,2.8v0.8l1.5,0.9l1.6-0.8l1.5-0.7l1.4,1.4l1.9-1.4l2.6,1.5l1.6-1.6
				l-3.4-3.1l5.4-2v-1.2L32,29.4c0,0-0.2-4-1.2-4.8C29.6,24.1,29.1,29.8,29.1,29.8z"/>
			<path class="st3" d="M30.5,25.6c0,0-1,1.4,0,2.2C30.5,27.8,31.7,26.9,30.5,25.6z"/>
			<rect x="24" y="31.8" class="st2" width="0.4" height="1.6"/>
			<rect x="26.1" y="31" class="st2" width="0.4" height="1.6"/>
			<rect x="34.8" y="31" class="st2" width="0.4" height="1.6"/>
			<rect x="36.7" y="32" class="st2" width="0.4" height="1.6"/>
		</g>
		<g>
			<path class="st2" d="M47.6,29L41,33.6v1.3l5.1,1.9l-2.9,2.8v0.8l1.5,0.9l1.6-0.8l1.5-0.7l1.4,1.4l1.9-1.4l2.6,1.5l1.6-1.6
				l-3.4-3.1l5.4-2v-1.2l-6.8-4.7c0,0-0.2-4-1.2-4.8C48.1,23.4,47.6,29,47.6,29z"/>
			<path class="st3" d="M49,24.9c0,0-1,1.4,0,2.2C49,27.1,50.2,26.1,49,24.9z"/>
			<rect x="42.5" y="31" class="st2" width="0.4" height="1.6"/>
			<rect x="44.6" y="30.2" class="st2" width="0.4" height="1.6"/>
			<rect x="53.3" y="30.2" class="st2" width="0.4" height="1.6"/>
			<rect x="55.2" y="31.2" class="st2" width="0.4" height="1.6"/>
		</g>
		<g>
			<path class="st2" d="M38.9,59l-6.6,4.5v1.3l5.1,1.9l-2.9,2.8v0.8l1.5,0.9l1.6-0.8l1.5-0.7l1.4,1.4l1.9-1.4l2.6,1.5l1.6-1.6
				l-3.4-3.1l5.4-2v-1.2l-6.8-4.7c0,0-0.2-4-1.2-4.8S38.9,59,38.9,59z"/>
			<path class="st3" d="M40.3,54.9c0,0-1,1.4,0,2.2C40.4,57.1,41.6,56.1,40.3,54.9z"/>
			<rect x="33.9" y="61" class="st2" width="0.4" height="1.6"/>
			<rect x="35.9" y="60.2" class="st2" width="0.4" height="1.6"/>
			<rect x="44.6" y="60.2" class="st2" width="0.4" height="1.6"/>
			<rect x="46.6" y="61.2" class="st2" width="0.4" height="1.6"/>
		</g>
	</g>
</g>
<g>
	<g>
		<path class="st5" d="M37.2,22c0,0,3.8,6.7-3.4,15.8c0,0-3.3,3.4-1.8,10.8c0,0-2.6-2.8-1.8-7.5c0,0-5.3,16.2,11.3,16.8
			c0,0,15.8-5.1,5.8-20.6c0,0,0.9,6.3-1.1,7.7c0,0-3.3-1.4-2.3-8.4c0,0,1.8-5.6-1.5-9.5c0,0,0,4.6-2.1,5.6
			C40.4,32.8,42.8,25,37.2,22z"/>
		<path class="st6" d="M44.4,56.5c1.7-1.8,2.9-4.8-0.2-9.6c0,0,0.5,3.6-0.6,4.4c0,0-1.9-0.8-1.3-4.8c0,0,1-3.2-0.8-5.4
			c0,0,0,2.6-1.2,3.2c0,0,1.4-4.5-1.8-6.1c0,0,2.2,3.8-1.9,9c0,0-1.9,1.9-1,6.2c0,0-1.5-1.6-1-4.3c0,0-1.5,4.6,1,7.5
			c1.6,0.7,3.6,1.2,6.2,1.2C41.5,57.9,42.8,57.5,44.4,56.5z"/>
		<path class="st7" d="M43.4,57c0.6-1.2,0.8-2.8-0.7-5.2c0,0,0.3,2.3-0.4,2.8c0,0-1.2-0.5-0.8-3c0,0,0.6-2-0.5-3.4c0,0,0,1.6-0.8,2
			c0,0,0.9-2.8-1.1-3.9c0,0,1.4,2.4-1.2,5.7c0,0-1.2,1.2-0.6,3.9c0,0-0.9-1-0.6-2.7c0,0-0.7,2.1,0,3.8c1.4,0.5,3,0.7,5,0.8
			C41.5,57.9,42.3,57.7,43.4,57z"/>
	</g>
</g>
</svg>
