<?xml version="1.0" encoding="utf-8"?>
<!-- Generator: Adobe Illustrator 22.1.0, SVG Export Plug-In . SVG Version: 6.00 Build 0)  -->
<svg version="1.1" id="Layer_1" xmlns="http://www.w3.org/2000/svg" xmlns:xlink="http://www.w3.org/1999/xlink" x="0px" y="0px"
	 viewBox="0 0 80 80" style="enable-background:new 0 0 80 80;" xml:space="preserve">
<style type="text/css">
	.st0{fill:#238AAF;}
	.st1{fill:#231F20;}
	.st2{fill:#232323;}
	.st3{fill:#181818;}
	.st4{fill:none;stroke:#404041;}
	.st5{display:none;}
	.st6{display:inline;}
	.st7{fill:#121112;}
	.st8{fill:#212120;}
	.st9{fill:#F05A26;}
	.st10{fill:#F69220;}
	.st11{fill:#F9EC23;}
</style>
<g id="Layer_2_1_">
	<rect class="st0" width="80" height="80"/>
</g>
<g id="Layer_1_1_">
	<g>
		<g>
			<path class="st1" d="M0,21.1h43.1c0,0,22.6,1.9,28.4,6.3C74,29.3,76,35.7,76,39s-1.9,10-4.4,11.9c-5.8,4.3-28.4,5.6-28.4,5.6
				L0,56.6"/>
		</g>
		<path class="st2" d="M11.7,46.3c1.7,0,3.3-0.8,4.3-2.1c1.3-1.7,2.8-3.9,2.8-5c0-1-1.6-3.5-2.9-5.4c-1-1.5-2.7-2.4-4.5-2.4h-11v15
			L11.7,46.3z"/>
		<path class="st3" d="M13.2,43.9c0.8,0,1.4-0.6,1.4-1.4v-7.3c0-0.8-0.6-1.4-1.4-1.4H0.5v10.1H13.2z"/>
		<line class="st4" x1="9.6" y1="37.2" x2="1.8" y2="29.3"/>
		<line class="st4" x1="9.4" y1="42.3" x2="0.8" y2="33.6"/>
		<path class="st1" d="M37.6,59.8v-5.3c0-1,0.8-1.7,1.7-1.7h0.9c1,0,1.7,0.8,1.7,1.7v5.3c0,1-0.8,1.7-1.7,1.7h-0.9
			C38.4,61.6,37.6,60.8,37.6,59.8z"/>
		<path class="st1" d="M37.6,23v-5.6c0-0.9,0.7-1.6,1.6-1.6h1.2c0.9,0,1.6,0.7,1.6,1.6V23c0,0.9-0.7,1.6-1.6,1.6h-1.2
			C38.3,24.6,37.6,23.9,37.6,23z"/>
	</g>
</g>
<g id="Layer_1_2_" class="st5">
	<g class="st6">
		<path class="st7" d="M-75.4,23.1c1.7,4.2,5,14,5.9,16.9c0.1,0.4,0.6,0.7,1.1,0.6l4-1c0.5-0.1,0.8-0.7,0.6-1.2l-5.5-14.5
			c-0.1-0.3-0.3-0.4-0.6-0.5l-4.4-1.5C-75,21.7-75.7,22.4-75.4,23.1z"/>
		<path class="st7" d="M-76,57c1.8-4.1,5.6-13.8,6.6-16.6c0.2-0.4,0.6-0.7,1.1-0.5l3.9,1.1c0.5,0.1,0.8,0.7,0.6,1.2l-6.1,14.3
			c-0.1,0.2-0.3,0.4-0.6,0.5l-4.4,1.3C-75.7,58.4-76.3,57.7-76,57z"/>
		<polygon class="st8" points="-61.3,40.2 -71.1,35.7 -77.2,40 -71.1,44.2 		"/>
		<path d="M-0.8,47l-17.9,0.1c-3,0-5.5-2.4-5.5-5.5v-4c0-3.1,2.5-5.5,5.5-5.5h17.9V21.7H-42c0,0-21.6,1.9-27.2,6.3
			c-2.4,1.9-2.4,8.3-2.4,11.5c0,3.3,0,10,2.4,11.9C-63.7,55.7-42,57-42,57l41.2,0.2V47z"/>
		<path class="st2" d="M-0.8,47v-2.4h-10.4c-0.2,0-0.4,0-0.5-0.1l-8.9-3.6c-1.2-0.5-1.2-2.2,0-2.7l9.7-3.7c0.2-0.1,0.3-0.1,0.5-0.1
			h9.6V32h-17.9c-3.1,0-5.5,2.5-5.5,5.5v4c0,3,2.5,5.5,5.5,5.5H-0.8z"/>
		<path class="st3" d="M-10.9,34.5l-9.7,3.7c-1.2,0.5-1.2,2.2,0,2.7l8.9,3.6c0.2,0.1,0.3,0.1,0.5,0.1h10.4V34.4h-9.6
			C-10.6,34.4-10.8,34.4-10.9,34.5z"/>
		<line class="st4" x1="-3.6" y1="39.5" x2="-11.5" y2="31.6"/>
		<ellipse class="st1" cx="-12.3" cy="39.6" rx="3.2" ry="3.1"/>
	</g>
</g>
<g>
	<g>
		<path class="st9" d="M57.9,37.2c0,0-6.7,3.8-15.8-3.4c0,0-3.4-3.3-10.8-1.8c0,0,2.8-2.6,7.5-1.8c0,0-16.2-5.3-16.8,11.3
			c0,0,5.1,15.8,20.6,5.8c0,0-6.3,0.9-7.7-1.1c0,0,1.4-3.3,8.4-2.3c0,0,5.6,1.8,9.5-1.5c0,0-4.6,0-5.6-2.1
			C47.2,40.4,54.9,42.8,57.9,37.2z"/>
		<path class="st10" d="M23.4,44.4c1.8,1.7,4.8,2.9,9.6-0.2c0,0-3.6,0.5-4.4-0.6c0,0,0.8-1.9,4.8-1.3c0,0,3.2,1,5.4-0.8
			c0,0-2.6,0-3.2-1.2c0,0,4.5,1.4,6.1-1.8c0,0-3.8,2.2-9-1.9c0,0-1.9-1.9-6.2-1c0,0,1.6-1.5,4.3-1c0,0-4.6-1.5-7.5,1
			c-0.7,1.6-1.2,3.6-1.2,6.2C22,41.5,22.4,42.8,23.4,44.4z"/>
		<path class="st11" d="M22.9,43.4c1.2,0.6,2.8,0.8,5.2-0.7c0,0-2.3,0.3-2.8-0.4c0,0,0.5-1.2,3-0.8c0,0,2,0.6,3.4-0.5
			c0,0-1.6,0-2-0.8c0,0,2.8,0.9,3.9-1.1c0,0-2.4,1.4-5.7-1.2c0,0-1.2-1.2-3.9-0.6c0,0,1-0.9,2.7-0.6c0,0-2.1-0.7-3.8,0
			c-0.5,1.4-0.7,3-0.8,5C22,41.5,22.2,42.3,22.9,43.4z"/>
	</g>
</g>
</svg>
