<?xml version="1.0" encoding="utf-8"?>
<!-- Generator: Adobe Illustrator 22.1.0, SVG Export Plug-In . SVG Version: 6.00 Build 0)  -->
<svg version="1.1" id="Layer_1" xmlns="http://www.w3.org/2000/svg" xmlns:xlink="http://www.w3.org/1999/xlink" x="0px" y="0px"
	 viewBox="0 0 80 80" style="enable-background:new 0 0 80 80;" xml:space="preserve">
<style type="text/css">
	.st0{fill:#238AAF;}
	.st1{fill:#121112;}
	.st2{fill:#212120;}
	.st3{fill:#231F20;}
	.st4{fill:#232323;}
	.st5{fill:#181818;}
	.st6{fill:none;stroke:#404041;}
	.st7{fill:#F05A26;}
	.st8{fill:#F69220;}
	.st9{fill:#F9EC23;}
</style>
<g id="Layer_2_1_">
	<rect class="st0" width="80" height="80"/>
</g>
<g id="Layer_1_1_">
	<g>
		<path class="st1" d="M5.4,21.3c1.7,4.2,5,14,5.9,16.9c0.1,0.4,0.6,0.7,1.1,0.6l4-1c0.5-0.1,0.8-0.7,0.6-1.2l-5.5-14.5
			c-0.1-0.3-0.3-0.4-0.6-0.5l-4.4-1.5C5.8,19.9,5.1,20.6,5.4,21.3z"/>
		<path class="st1" d="M4.8,55.2c1.8-4.1,5.6-13.8,6.6-16.6c0.2-0.4,0.6-0.7,1.1-0.5l3.9,1.1c0.5,0.1,0.8,0.7,0.6,1.2l-6.1,14.3
			c-0.1,0.2-0.3,0.4-0.6,0.5l-4.4,1.3C5.1,56.6,4.5,55.9,4.8,55.2z"/>
		<polygon class="st2" points="19.5,38.4 9.7,33.9 3.6,38.2 9.7,42.4 		"/>
		<path class="st3" d="M80,45.2l-17.9,0.1c-3,0-5.5-2.4-5.5-5.5v-4c0-3.1,2.5-5.5,5.5-5.5H80V19.9H38.8c0,0-21.6,1.9-27.2,6.3
			c-2.4,1.9-2.4,8.3-2.4,11.5c0,3.3,0,10,2.4,11.9c5.5,4.3,27.2,5.6,27.2,5.6L80,55.4V45.2z"/>
		<path class="st4" d="M80,45.2v-2.4H69.6c-0.2,0-0.4,0-0.5-0.1l-8.9-3.6c-1.2-0.5-1.2-2.2,0-2.7l9.7-3.7c0.2-0.1,0.3-0.1,0.5-0.1
			H80v-2.4H62.1c-3.1,0-5.5,2.5-5.5,5.5v4c0,3,2.5,5.5,5.5,5.5L80,45.2z"/>
		<path class="st5" d="M69.9,32.7l-9.7,3.7c-1.2,0.5-1.2,2.2,0,2.7l8.9,3.6c0.2,0.1,0.3,0.1,0.5,0.1H80V32.6h-9.6
			C70.2,32.6,70,32.6,69.9,32.7z"/>
		<line class="st6" x1="77.2" y1="37.7" x2="69.3" y2="29.8"/>
		<ellipse class="st3" cx="68.5" cy="37.8" rx="3.2" ry="3.1"/>
	</g>
</g>
<g>
	<g>
		<path class="st7" d="M57.9,37.2c0,0-6.7,3.8-15.8-3.4c0,0-3.4-3.3-10.8-1.8c0,0,2.8-2.6,7.5-1.8c0,0-16.2-5.3-16.8,11.3
			c0,0,5.1,15.8,20.6,5.8c0,0-6.3,0.9-7.7-1.1c0,0,1.4-3.3,8.4-2.3c0,0,5.6,1.8,9.5-1.5c0,0-4.6,0-5.6-2.1
			C47.2,40.4,54.9,42.8,57.9,37.2z"/>
		<path class="st8" d="M23.4,44.4c1.8,1.7,4.8,2.9,9.6-0.2c0,0-3.6,0.5-4.4-0.6c0,0,0.8-1.9,4.8-1.3c0,0,3.2,1,5.4-0.8
			c0,0-2.6,0-3.2-1.2c0,0,4.5,1.4,6.1-1.8c0,0-3.8,2.2-9-1.9c0,0-1.9-1.9-6.2-1c0,0,1.6-1.5,4.3-1c0,0-4.6-1.5-7.5,1
			c-0.7,1.6-1.2,3.6-1.2,6.2C22,41.5,22.4,42.8,23.4,44.4z"/>
		<path class="st9" d="M22.9,43.4c1.2,0.6,2.8,0.8,5.2-0.7c0,0-2.3,0.3-2.8-0.4c0,0,0.5-1.2,3-0.8c0,0,2,0.6,3.4-0.5
			c0,0-1.6,0-2-0.8c0,0,2.8,0.9,3.9-1.1c0,0-2.4,1.4-5.7-1.2c0,0-1.2-1.2-3.9-0.6c0,0,1-0.9,2.7-0.6c0,0-2.1-0.7-3.8,0
			c-0.5,1.4-0.7,3-0.8,5C22,41.5,22.2,42.3,22.9,43.4z"/>
	</g>
</g>
</svg>
