<?xml version="1.0" encoding="utf-8"?>
<!-- Generator: Adobe Illustrator 22.1.0, SVG Export Plug-In . SVG Version: 6.00 Build 0)  -->
<svg version="1.1" id="Layer_1" xmlns="http://www.w3.org/2000/svg" xmlns:xlink="http://www.w3.org/1999/xlink" x="0px" y="0px"
	 viewBox="0 0 80 80" style="enable-background:new 0 0 80 80;" xml:space="preserve">
<style type="text/css">
	.st0{fill:#238AAF;}
	.st1{fill:#231F20;}
	.st2{fill:#232323;}
	.st3{fill:#181818;}
	.st4{fill:none;stroke:#404041;}
	.st5{fill:#F05A26;}
	.st6{fill:#F69220;}
	.st7{fill:#F9EC23;}
</style>
<g id="Layer_2_1_">
	<rect class="st0" width="80" height="80"/>
</g>
<g id="Layer_1_1_">
	<g>
		<g>
			<path class="st1" d="M22.9,80V36.9c0,0,1.9-22.6,6.3-28.4C31.1,6,37.5,4,40.8,4s10,1.9,11.9,4.4c4.3,5.8,5.6,28.4,5.6,28.4
				L58.4,80"/>
		</g>
		<path class="st2" d="M48.1,68.3c0-1.7-0.8-3.3-2.1-4.3c-1.7-1.3-3.9-2.8-5-2.8c-1,0-3.5,1.6-5.4,2.9c-1.5,1-2.4,2.7-2.4,4.5v11h15
			L48.1,68.3z"/>
		<path class="st3" d="M45.7,66.8c0-0.8-0.6-1.4-1.4-1.4H37c-0.8,0-1.4,0.6-1.4,1.4v12.7h10.1C45.7,79.5,45.7,66.8,45.7,66.8z"/>
		<line class="st4" x1="39" y1="70.4" x2="31.1" y2="78.2"/>
		<line class="st4" x1="44" y1="70.6" x2="35.4" y2="79.2"/>
		<path class="st1" d="M61.6,42.4h-5.3c-1,0-1.7-0.8-1.7-1.7v-0.9c0-1,0.8-1.7,1.7-1.7h5.3c1,0,1.8,0.8,1.8,1.7v0.9
			C63.4,41.6,62.6,42.4,61.6,42.4z"/>
		<path class="st1" d="M24.8,42.4h-5.6c-0.9,0-1.6-0.7-1.6-1.6v-1.2c0-0.9,0.7-1.6,1.6-1.6h5.6c0.9,0,1.6,0.7,1.6,1.6v1.2
			C26.4,41.7,25.7,42.4,24.8,42.4z"/>
	</g>
</g>
<g>
	<g>
		<path class="st5" d="M37.2,22.1c0,0,3.8,6.7-3.4,15.8c0,0-3.3,3.4-1.8,10.8c0,0-2.6-2.8-1.8-7.5c0,0-5.3,16.2,11.3,16.8
			c0,0,15.8-5.1,5.8-20.6c0,0,0.9,6.3-1.1,7.7c0,0-3.3-1.4-2.3-8.4c0,0,1.8-5.6-1.5-9.5c0,0,0,4.6-2.1,5.6
			C40.4,32.8,42.8,25.1,37.2,22.1z"/>
		<path class="st6" d="M44.4,56.6c1.7-1.8,2.9-4.8-0.2-9.6c0,0,0.5,3.6-0.6,4.4c0,0-1.9-0.8-1.3-4.8c0,0,1-3.2-0.8-5.4
			c0,0,0,2.6-1.2,3.2c0,0,1.4-4.5-1.8-6.1c0,0,2.2,3.8-1.9,9c0,0-1.9,1.9-1,6.2c0,0-1.5-1.6-1-4.3c0,0-1.5,4.6,1,7.5
			c1.6,0.7,3.6,1.2,6.2,1.2C41.5,58,42.8,57.6,44.4,56.6z"/>
		<path class="st7" d="M43.4,57.1c0.6-1.2,0.8-2.8-0.7-5.2c0,0,0.3,2.3-0.4,2.8c0,0-1.2-0.5-0.8-3c0,0,0.6-2-0.5-3.4
			c0,0,0,1.6-0.8,2c0,0,0.9-2.8-1.1-3.9c0,0,1.4,2.4-1.2,5.7c0,0-1.2,1.2-0.6,3.9c0,0-0.9-1-0.6-2.7c0,0-0.7,2.1,0,3.8
			c1.4,0.5,3,0.7,5,0.8C41.5,58,42.3,57.8,43.4,57.1z"/>
	</g>
</g>
</svg>
