<?xml version="1.0" encoding="utf-8"?>
<!-- Generator: Adobe Illustrator 22.1.0, SVG Export Plug-In . SVG Version: 6.00 Build 0)  -->
<svg version="1.1" id="Layer_1" xmlns="http://www.w3.org/2000/svg" xmlns:xlink="http://www.w3.org/1999/xlink" x="0px" y="0px"
	 viewBox="0 0 80 80" style="enable-background:new 0 0 80 80;" xml:space="preserve">
<style type="text/css">
	.st0{fill:#238AAF;}
	.st1{fill:#121112;}
	.st2{fill:#212120;}
	.st3{fill:#231F20;}
	.st4{fill:#232323;}
	.st5{fill:#181818;}
	.st6{fill:none;stroke:#404041;}
</style>
<g id="Layer_2_1_">
	<rect class="st0" width="80" height="80"/>
</g>
<g id="Layer_1_1_">
	<g>
		<path class="st1" d="M5.4,21.3c1.7,4.2,5,14,5.9,16.9c0.1,0.4,0.6,0.7,1.1,0.6l4-1c0.5-0.1,0.8-0.7,0.6-1.2l-5.5-14.5
			c-0.1-0.3-0.3-0.4-0.6-0.5l-4.4-1.5C5.8,19.9,5.1,20.6,5.4,21.3z"/>
		<path class="st1" d="M4.8,55.2c1.8-4.1,5.6-13.8,6.6-16.6c0.2-0.4,0.6-0.7,1.1-0.5l3.9,1.1c0.5,0.1,0.8,0.7,0.6,1.2l-6.1,14.3
			c-0.1,0.2-0.3,0.4-0.6,0.5l-4.4,1.3C5.1,56.6,4.5,55.9,4.8,55.2z"/>
		<polygon class="st2" points="19.5,38.4 9.7,33.9 3.6,38.2 9.7,42.4 		"/>
		<path class="st3" d="M80,45.2l-17.9,0.1c-3,0-5.5-2.4-5.5-5.5v-4c0-3.1,2.5-5.5,5.5-5.5H80V19.9H38.8c0,0-21.6,1.9-27.2,6.3
			c-2.4,1.9-2.4,8.3-2.4,11.5c0,3.3,0,10,2.4,11.9c5.5,4.3,27.2,5.6,27.2,5.6L80,55.4V45.2z"/>
		<path class="st4" d="M80,45.2v-2.4H69.6c-0.2,0-0.4,0-0.5-0.1l-8.9-3.6c-1.2-0.5-1.2-2.2,0-2.7l9.7-3.7c0.2-0.1,0.3-0.1,0.5-0.1
			H80v-2.4H62.1c-3.1,0-5.5,2.5-5.5,5.5v4c0,3,2.5,5.5,5.5,5.5L80,45.2z"/>
		<path class="st5" d="M69.9,32.7l-9.7,3.7c-1.2,0.5-1.2,2.2,0,2.7l8.9,3.6c0.2,0.1,0.3,0.1,0.5,0.1H80V32.6h-9.6
			C70.2,32.6,70,32.6,69.9,32.7z"/>
		<line class="st6" x1="77.2" y1="37.7" x2="69.3" y2="29.8"/>
		<ellipse class="st3" cx="68.5" cy="37.8" rx="3.2" ry="3.1"/>
	</g>
</g>
</svg>
