<?xml version="1.0" encoding="utf-8"?>
<!-- Generator: Adobe Illustrator 22.1.0, SVG Export Plug-In . SVG Version: 6.00 Build 0)  -->
<svg version="1.1" id="Layer_1" xmlns="http://www.w3.org/2000/svg" xmlns:xlink="http://www.w3.org/1999/xlink" x="0px" y="0px"
	 viewBox="0 0 80 80" style="enable-background:new 0 0 80 80;" xml:space="preserve">
<style type="text/css">
	.st0{fill:#238AAF;}
	.st1{fill:#121112;}
	.st2{fill:#212120;}
	.st3{fill:#231F20;}
	.st4{fill:#232323;}
	.st5{fill:#181818;}
	.st6{fill:none;stroke:#404041;}
</style>
<g id="Layer_2_1_">
	<rect class="st0" width="80" height="80"/>
</g>
<g id="Layer_1_1_">
	<g>
		<path class="st1" d="M23.1,74.6c4.2-1.7,14-5,16.9-5.9c0.4-0.1,0.7-0.6,0.6-1.1l-1-4c-0.1-0.5-0.7-0.8-1.2-0.6l-14.5,5.5
			c-0.3,0.1-0.4,0.3-0.5,0.6l-1.5,4.4C21.7,74.2,22.4,74.9,23.1,74.6z"/>
		<path class="st1" d="M57,75.2c-4.1-1.8-13.8-5.6-16.6-6.6c-0.4-0.2-0.7-0.6-0.5-1.1l1.1-3.9c0.1-0.5,0.7-0.8,1.2-0.6l14.3,6.1
			c0.2,0.1,0.4,0.3,0.5,0.6l1.3,4.4C58.4,74.9,57.7,75.5,57,75.2z"/>
		<polygon class="st2" points="40.2,60.5 35.7,70.3 40,76.4 44.2,70.3 		"/>
		<path class="st3" d="M47,0v17.9c0,3-2.4,5.5-5.5,5.5h-4c-3.1,0-5.5-2.5-5.5-5.5V0H21.8v41.2c0,0,1.9,21.6,6.3,27.2
			c1.9,2.4,8.3,2.4,11.5,2.4c3.3,0,10,0,11.9-2.4c4.3-5.5,5.6-27.2,5.6-27.2L57.2,0H47z"/>
		<path class="st4" d="M47,0h-2.4v10.4c0,0.2,0,0.4-0.1,0.5l-3.6,8.9c-0.5,1.2-2.2,1.2-2.7,0l-3.7-9.7c-0.1-0.2-0.1-0.3-0.1-0.5V0
			H32v17.9c0,3.1,2.5,5.5,5.5,5.5h4c3,0,5.5-2.5,5.5-5.5V0z"/>
		<path class="st5" d="M34.5,10.1l3.7,9.7c0.5,1.2,2.2,1.2,2.7,0l3.6-8.9c0.1-0.2,0.1-0.3,0.1-0.5V0H34.4v9.6
			C34.4,9.8,34.4,10,34.5,10.1z"/>
		<line class="st6" x1="39.5" y1="2.8" x2="31.7" y2="10.7"/>
		<ellipse class="st3" cx="39.6" cy="11.5" rx="3.1" ry="3.2"/>
	</g>
</g>
</svg>
