<?xml version="1.0" encoding="utf-8"?>
<!-- Generator: Adobe Illustrator 22.1.0, SVG Export Plug-In . SVG Version: 6.00 Build 0)  -->
<svg version="1.1" xmlns="http://www.w3.org/2000/svg" xmlns:xlink="http://www.w3.org/1999/xlink" x="0px" y="0px"
	 viewBox="0 0 80 80" style="enable-background:new 0 0 80 80;" xml:space="preserve">
<style type="text/css">
	.st0{fill:#238AAF;}
	.st1{fill:#A08748;}
	.st2{fill:#605447;}
	.st3{fill:#CAAA5F;}
	.st4{fill:#E65547;}
	.st5{fill:#D3B13B;}
	.st6{fill:#60574C;}
</style>
<g id="Layer_2">
	<rect class="st0" width="80" height="80"/>
</g>
<g id="Layer_1">
	<g>
		<g>
			<path class="st1" d="M40.2,78.7c0,0,5.5-20.2,6-26.4c0.5-6.2,0-26.7,0-26.7s-5.4-21.3-6.1-23l-6.1,23.7v25.7
				C33.9,51.9,37.4,73.3,40.2,78.7z"/>
			<path class="st2" d="M39.6,78.9c-2.6-5.4-6-26-6.1-26.9l0-0.1V26.2L40,1.1l0.5,1.3c0.7,1.8,5.9,22.2,6.1,23.1l0,0.1
				c0,0.2,0.5,20.6,0,26.7c-0.5,6.2-5.9,25.7-6.1,26.6L39.6,78.9z M34.4,51.9c0.2,0.9,3.1,18.8,5.7,25.4c1.2-4.5,5.2-19.8,5.6-25
				c0.4-6,0-25.4,0-26.6c-0.3-1-4.1-16.3-5.6-21.4l-5.7,22V51.9z"/>
		</g>
		<polygon class="st3" points="34.1,36.4 46.3,36.4 46.3,37.5 34.2,37.5 		"/>
		<polygon class="st3" points="34.1,44.7 46.3,44.7 46.3,45.8 34.1,45.8 		"/>
		<polygon class="st3" points="34.4,52 45.8,52 45.6,53.1 34.5,53 		"/>
		<polygon class="st3" points="35.1,55.7 45.3,55.7 45.1,56.7 35.2,56.7 		"/>
		<polygon class="st3" points="34.7,25 45.6,25 45.8,26.1 34.5,26 		"/>
		<polygon class="st3" points="35.6,21.7 44.7,21.6 45,22.8 35.4,22.7 		"/>
		<path class="st4" d="M27.7,45.2c0,0-6.3-0.3-8.3,2.9c-0.3,0.5,0.2,1.5,0.5,2.1c0,0,2.1,2.6,7.9-3.7l0.3-0.4L27.7,45.2z"/>
		<polygon class="st5" points="25,46.5 25.4,47 42.5,39.4 40.6,39.1 		"/>
		<path class="st4" d="M54.1,43.7c0,0,4,4.9,7.7,4.3c0.5-0.1,0.9-1.1,1.2-1.7c0,0,0.6-3.3-8-3.6l-0.5,0L54.1,43.7z"/>
		<polygon class="st5" points="56.9,44.9 57,44.2 40.1,36.3 41.1,37.9 		"/>
		<polygon class="st6" points="38.9,7.5 41.5,7.5 40.1,3 		"/>
		<polygon class="st6" points="41.3,73.8 38.6,73.8 40,78.4 		"/>
		<g>
			<polygon class="st6" points="35.3,52.3 44.7,52.3 44.7,53 35.3,53 			"/>
			<polygon class="st6" points="35.5,53.5 44.7,53.5 44.7,54.1 35.5,54.1 			"/>
			<polygon class="st6" points="35.5,54.6 44.7,54.6 44.7,55.2 35.5,55.2 			"/>
			<polygon class="st6" points="35.3,55.6 44.6,55.6 44.6,56.4 35.3,56.4 			"/>
			<polygon class="st6" points="35.3,56.4 35.3,52.3 35.8,52.3 35.8,56.4 			"/>
			<polygon class="st6" points="37.4,56.3 37.4,52.3 37.8,52.3 37.8,56.3 			"/>
			<polygon class="st6" points="39.6,56.2 39.6,52.3 40,52.3 40,56.2 			"/>
			<polygon class="st6" points="41.6,56.3 41.6,52.5 42,52.5 42.1,56.3 			"/>
			<polygon class="st6" points="44.4,56.4 44.4,52.3 44.8,52.3 44.8,56.4 			"/>
		</g>
		<g>
			<polygon class="st6" points="35.6,21.8 44.2,21.8 44.2,22.6 35.7,22.6 			"/>
			<polygon class="st6" points="35.8,23 44.2,23 44.2,23.6 35.9,23.6 			"/>
			<polygon class="st6" points="35.8,24.1 44.2,24.1 44.2,24.7 35.9,24.7 			"/>
			<polygon class="st6" points="35.7,25.1 44.1,25.1 44.1,25.9 35.7,25.9 			"/>
			<polygon class="st6" points="35.7,25.9 35.7,21.8 36.1,21.8 36.1,25.9 			"/>
			<polygon class="st6" points="37.6,25.8 37.6,21.8 38,21.8 38,25.8 			"/>
			<polygon class="st6" points="39.6,25.8 39.6,21.8 39.9,21.8 39.9,25.8 			"/>
			<polygon class="st6" points="41.4,25.8 41.4,22 41.8,22 41.8,25.8 			"/>
			<polygon class="st6" points="43.9,25.9 43.9,21.8 44.3,21.8 44.3,25.9 			"/>
		</g>
	</g>
</g>
</svg>
