<?xml version="1.0" encoding="utf-8"?>
<!-- Generator: Adobe Illustrator 22.1.0, SVG Export Plug-In . SVG Version: 6.00 Build 0)  -->
<svg version="1.1" xmlns="http://www.w3.org/2000/svg" xmlns:xlink="http://www.w3.org/1999/xlink" x="0px" y="0px"
	 viewBox="0 0 80 80" style="enable-background:new 0 0 80 80;" xml:space="preserve">
<style type="text/css">
	.st0{fill:#238AAF;}
	.st1{fill:#6D6E70;}
	.st2{fill:#404041;}
	.st3{fill:#FFFFFF;}
	.st4{fill:#C1C0C0;}
</style>
<g id="Layer_2">
	<rect class="st0" width="80" height="80"/>
</g>
<g id="Layer_1">
	<g>
		<g>
			<path class="st1" d="M80,19.1H36.4L7.7,26c0,0-4.5,9-4.5,12.6c0,3.6,4.5,12.9,4.5,12.9l28.7,6.1L80,57.7"/>
		</g>
		<g>
			<path class="st2" d="M69.4,27.6l-4.5-6.6h-1.3l-1.9,5.1l-2.8-2.9H58L57,24.7l0.8,1.6l0.7,1.5l-1.4,1.4l1.4,1.9L57,33.6l1.6,1.6
				l3.1-3.4l2,5.4h1.2l4.7-6.8c0,0,4-0.2,4.8-1.2C75.1,28.1,69.4,27.6,69.4,27.6z"/>
			<path class="st3" d="M73.5,29c0,0-1.4-1-2.2,0C71.4,29.1,72.3,30.3,73.5,29z"/>
			
				<rect x="66.4" y="22" transform="matrix(-1.836970e-16 1 -1 -1.836970e-16 89.4055 -43.7699)" class="st2" width="0.4" height="1.6"/>
			
				<rect x="67.2" y="24" transform="matrix(-1.836970e-16 1 -1 -1.836970e-16 92.2289 -42.5655)" class="st2" width="0.4" height="1.6"/>
			
				<rect x="67.2" y="32.8" transform="matrix(-1.836970e-16 1 -1 -1.836970e-16 100.9755 -33.8584)" class="st2" width="0.4" height="1.6"/>
			
				<rect x="66.2" y="34.7" transform="matrix(-1.836970e-16 1 -1 -1.836970e-16 101.9035 -30.9165)" class="st2" width="0.4" height="1.6"/>
		</g>
		
			<rect x="30.2" y="35.1" transform="matrix(-1.836970e-16 1 -1 -1.836970e-16 70.1276 7.2948)" class="st4" width="2.3" height="7.2"/>
		
			<rect x="46.2" y="35.1" transform="matrix(-1.836970e-16 1 -1 -1.836970e-16 86.1277 -8.7053)" class="st4" width="2.3" height="7.2"/>
		
			<rect x="60.2" y="35.1" transform="matrix(-1.836970e-16 1 -1 -1.836970e-16 100.1277 -22.7054)" class="st4" width="2.3" height="7.2"/>
		
			<rect x="75.3" y="35.1" transform="matrix(-1.836970e-16 1 -1 -1.836970e-16 115.1278 -37.7055)" class="st4" width="2.3" height="7.2"/>
		<g>
			<path class="st2" d="M70.1,46.1l-4.5-6.6h-1.3l-1.9,5.1l-2.8-2.9h-0.8l-0.9,1.5l0.8,1.6l0.7,1.5l-1.4,1.4l1.4,1.9l-1.5,2.6
				l1.6,1.6l3.1-3.4l2,5.4h1.2l4.7-6.8c0,0,4-0.2,4.8-1.2C75.8,46.6,70.1,46.1,70.1,46.1z"/>
			<path class="st3" d="M74.3,47.5c0,0-1.4-1-2.2,0C72.1,47.6,73.1,48.8,74.3,47.5z"/>
			
				<rect x="67.1" y="40.5" transform="matrix(-1.836970e-16 1 -1 -1.836970e-16 108.6555 -26.0199)" class="st2" width="0.4" height="1.6"/>
			
				<rect x="67.9" y="42.5" transform="matrix(-1.836970e-16 1 -1 -1.836970e-16 111.4789 -24.8155)" class="st2" width="0.4" height="1.6"/>
			
				<rect x="68" y="51.3" transform="matrix(-1.836970e-16 1 -1 -1.836970e-16 120.2255 -16.1084)" class="st2" width="0.4" height="1.6"/>
			
				<rect x="67" y="53.2" transform="matrix(-1.836970e-16 1 -1 -1.836970e-16 121.1535 -13.1665)" class="st2" width="0.4" height="1.6"/>
		</g>
		<g>
			<path class="st2" d="M50.2,27.5l-4.5-6.6h-1.3L42.5,26l-2.8-2.9h-0.8l-0.9,1.5l0.8,1.6l0.7,1.5L37.9,29l1.4,1.9l-1.5,2.6l1.6,1.6
				l3.1-3.4l2,5.4h1.2l4.7-6.8c0,0,4-0.2,4.8-1.2C55.9,28,50.2,27.5,50.2,27.5z"/>
			<path class="st3" d="M54.4,28.9c0,0-1.4-1-2.2,0C52.2,28.9,53.1,30.1,54.4,28.9z"/>
			
				<rect x="47.2" y="21.9" transform="matrix(-1.836970e-16 1 -1 -1.836970e-16 70.0722 -24.7699)" class="st2" width="0.4" height="1.6"/>
			
				<rect x="48" y="23.9" transform="matrix(-1.836970e-16 1 -1 -1.836970e-16 72.8956 -23.5655)" class="st2" width="0.4" height="1.6"/>
			
				<rect x="48" y="32.6" transform="matrix(-1.836970e-16 1 -1 -1.836970e-16 81.6422 -14.8584)" class="st2" width="0.4" height="1.6"/>
			
				<rect x="47" y="34.5" transform="matrix(-1.836970e-16 1 -1 -1.836970e-16 82.5701 -11.9165)" class="st2" width="0.4" height="1.6"/>
		</g>
		<g>
			<path class="st2" d="M51,46l-4.5-6.6h-1.3l-1.9,5.1l-2.8-2.9h-0.8l-0.9,1.5l0.8,1.6l0.7,1.5l-1.4,1.4l1.4,1.9L38.6,52l1.6,1.6
				l3.1-3.4l2,5.4h1.2l4.7-6.8c0,0,4-0.2,4.8-1.2S51,46,51,46z"/>
			<path class="st3" d="M55.1,47.4c0,0-1.4-1-2.2,0C52.9,47.4,53.9,48.6,55.1,47.4z"/>
			
				<rect x="48" y="40.4" transform="matrix(-1.836970e-16 1 -1 -1.836970e-16 89.3222 -7.0199)" class="st2" width="0.4" height="1.6"/>
			
				<rect x="48.8" y="42.4" transform="matrix(-1.836970e-16 1 -1 -1.836970e-16 92.1456 -5.8155)" class="st2" width="0.4" height="1.6"/>
			
				<rect x="48.8" y="51.1" transform="matrix(-1.836970e-16 1 -1 -1.836970e-16 100.8922 2.8916)" class="st2" width="0.4" height="1.6"/>
			
				<rect x="47.8" y="53" transform="matrix(-1.836970e-16 1 -1 -1.836970e-16 101.8201 5.8335)" class="st2" width="0.4" height="1.6"/>
		</g>
		<g>
			<path class="st2" d="M21,37.3l-4.5-6.6h-1.3l-1.9,5.1l-2.8-2.9H9.6l-0.9,1.5L9.4,36l0.7,1.5l-1.4,1.4l1.4,1.9l-1.5,2.6l1.6,1.6
				l3.1-3.4l2,5.4h1.2l4.7-6.8c0,0,4-0.2,4.8-1.2C26.6,37.8,21,37.3,21,37.3z"/>
			<path class="st3" d="M25.1,38.7c0,0-1.4-1-2.2,0C22.9,38.8,23.9,40,25.1,38.7z"/>
			
				<rect x="18" y="31.7" transform="matrix(-1.836970e-16 1 -1 -1.836970e-16 50.6555 14.3135)" class="st2" width="0.4" height="1.6"/>
			
				<rect x="18.8" y="33.7" transform="matrix(-1.836970e-16 1 -1 -1.836970e-16 53.4789 15.5179)" class="st2" width="0.4" height="1.6"/>
			
				<rect x="18.8" y="42.4" transform="matrix(-1.836970e-16 1 -1 -1.836970e-16 62.2255 24.2249)" class="st2" width="0.4" height="1.6"/>
			
				<rect x="17.8" y="44.4" transform="matrix(-1.836970e-16 1 -1 -1.836970e-16 63.1535 27.1668)" class="st2" width="0.4" height="1.6"/>
		</g>
	</g>
</g>
</svg>
