<?xml version="1.0" encoding="utf-8"?>
<!-- Generator: Adobe Illustrator 22.1.0, SVG Export Plug-In . SVG Version: 6.00 Build 0)  -->
<svg version="1.1" xmlns="http://www.w3.org/2000/svg" xmlns:xlink="http://www.w3.org/1999/xlink" x="0px" y="0px"
	 viewBox="0 0 80 80" style="enable-background:new 0 0 80 80;" xml:space="preserve">
<style type="text/css">
	.st0{fill:#238AAF;}
	.st1{fill:#6D6E70;}
	.st2{fill:#C1C0C0;}
	.st3{fill:#404041;}
</style>
<g id="Layer_2">
	<rect class="st0" width="80" height="80"/>
</g>
<g id="Layer_1">
	<g>
		<g>
			<polyline class="st1" points="0,20.3 80,20.3 80,58.9 0,58.9 			"/>
		</g>
		
			<rect x="5.3" y="36.4" transform="matrix(-1.836970e-16 1 -1 -1.836970e-16 46.426 33.4669)" class="st2" width="2.3" height="7.2"/>
		
			<rect x="18.3" y="36.4" transform="matrix(-1.836970e-16 1 -1 -1.836970e-16 59.426 20.4669)" class="st2" width="2.3" height="7.2"/>
		
			<rect x="31.3" y="36.4" transform="matrix(-1.836970e-16 1 -1 -1.836970e-16 72.4261 7.4668)" class="st2" width="2.3" height="7.2"/>
		
			<rect x="45.3" y="36.4" transform="matrix(-1.836970e-16 1 -1 -1.836970e-16 86.4262 -6.5333)" class="st2" width="2.3" height="7.2"/>
		
			<rect x="59.3" y="36.4" transform="matrix(-1.836970e-16 1 -1 -1.836970e-16 100.4263 -20.5334)" class="st2" width="2.3" height="7.2"/>
		
			<rect x="72.3" y="36.4" transform="matrix(-1.836970e-16 1 -1 -1.836970e-16 113.4264 -33.5335)" class="st2" width="2.3" height="7.2"/>
		<path class="st3" d="M37.2,55.2l2.9-0.7c1.1-0.3,2.2,0.4,2.4,1.5l0.7,2.8c0.3,1.1-0.4,2.2-1.5,2.4l-2.9,0.7
			c-1.1,0.3-2.2-0.4-2.4-1.5l-0.7-2.8C35.4,56.5,36.1,55.4,37.2,55.2z"/>
		<path class="st3" d="M39.8,59.5L39.8,59.5c0.6-0.1,1.2,0.2,1.4,0.8l0.9,3.8c0.1,0.6-0.2,1.2-0.8,1.4l0,0c-0.6,0.1-1.2-0.2-1.4-0.8
			L39,60.8C38.9,60.2,39.2,59.6,39.8,59.5z"/>
		<path class="st3" d="M36.5,24.9l2.9,0.7c1.1,0.3,2.2-0.4,2.4-1.5l0.7-2.8c0.3-1.1-0.4-2.2-1.5-2.4l-2.9-0.7
			c-1.1-0.3-2.2,0.4-2.4,1.5L35,22.4C34.7,23.5,35.4,24.6,36.5,24.9z"/>
		<path class="st3" d="M39.1,20.6L39.1,20.6c0.6,0.1,1.2-0.2,1.4-0.8l0.9-3.8c0.1-0.6-0.2-1.2-0.8-1.4l0,0c-0.6-0.1-1.2,0.2-1.4,0.8
			l-0.9,3.8C38.2,19.8,38.5,20.4,39.1,20.6z"/>
	</g>
</g>
</svg>
