<?xml version="1.0" encoding="utf-8"?>
<!-- Generator: Adobe Illustrator 22.1.0, SVG Export Plug-In . SVG Version: 6.00 Build 0)  -->
<svg version="1.1" id="Layer_1" xmlns="http://www.w3.org/2000/svg" xmlns:xlink="http://www.w3.org/1999/xlink" x="0px" y="0px"
	 viewBox="0 0 80 80" style="enable-background:new 0 0 80 80;" xml:space="preserve">
<style type="text/css">
	.st0{fill:#238BB0;}
	.st1{fill:#C6203C;}
</style>
<g>
	<rect class="st0" width="80" height="80"/>
</g>
<path class="st1" d="M76.1,17.1c0.6-1.1,0.5-2.4,0-3.4c0.1-1.2-0.2-2.4-1.3-3.3c-1-0.9-2.1-1.7-3.1-2.6c-1.8-1.5-4.7-2-6.5,0
	c-8.1,9-16.5,17.6-25.3,25.9c-6.5-6.1-13.1-12.1-19.6-18.1c-2.3-2.1-5.6-1.4-7.1,1.1c-2.1,1-3.8,2.4-5.2,4.7c-0.7,1.1-0.6,2.5,0,3.6
	c4.2,7.6,12.4,14.2,19.1,20.4c-0.9,0.8-1.8,1.6-2.7,2.4c-9,7.8-15.1,12.7-3.8,20.7c0.2,0.1,0.3,0.1,0.5,0.1c0.2,0.1,0.4,0.2,0.7,0.2
	c0.1,0,0.1,0,0.2,0c0.2,0,0.5,0.1,0.7,0c6.1-1.2,11.7-6,16.9-11.2c5,4.9,10.3,9.6,16.2,12.4c1.4,0.7,3.1,0.3,4.1-0.7
	c1.8,0.1,3.4-1,4.3-2.6c0.1-0.1,0.2-0.1,0.3-0.2c2.6-1.6,2.9-4.9,0.9-7.1c-4.4-5.1-9-9.9-13.8-14.6C60.1,36.6,70.7,27.6,76.1,17.1z"
	/>
</svg>
