<?xml version="1.0" encoding="utf-8"?>
<!-- Generator: Adobe Illustrator 22.1.0, SVG Export Plug-In . SVG Version: 6.00 Build 0)  -->
<svg version="1.1" id="Layer_1" xmlns="http://www.w3.org/2000/svg" xmlns:xlink="http://www.w3.org/1999/xlink" x="0px" y="0px"
	 viewBox="0 0 80 80" style="enable-background:new 0 0 80 80;" xml:space="preserve">
<style type="text/css">
	.st0{fill:#238AAF;}
	.st1{fill:#F05A26;}
	.st2{fill:#F69220;}
	.st3{fill:#F9EC23;}
</style>
<g id="Layer_2_1_">
	<rect class="st0" width="80" height="80"/>
</g>
<g>
	<g>
		<path class="st1" d="M37.2,22.1c0,0,3.8,6.7-3.4,15.8c0,0-3.3,3.4-1.8,10.8c0,0-2.6-2.8-1.8-7.5c0,0-5.3,16.2,11.3,16.8
			c0,0,15.8-5.1,5.8-20.6c0,0,0.9,6.3-1.1,7.7c0,0-3.3-1.4-2.3-8.4c0,0,1.8-5.6-1.5-9.5c0,0,0,4.6-2.1,5.6
			C40.4,32.8,42.8,25,37.2,22.1z"/>
		<path class="st2" d="M44.4,56.6c1.7-1.8,2.9-4.8-0.2-9.6c0,0,0.5,3.6-0.6,4.4c0,0-1.9-0.8-1.3-4.8c0,0,1-3.2-0.8-5.4
			c0,0,0,2.6-1.2,3.2c0,0,1.4-4.5-1.8-6.1c0,0,2.2,3.8-1.9,9c0,0-1.9,1.9-1,6.2c0,0-1.5-1.6-1-4.3c0,0-1.5,4.6,1,7.5
			c1.6,0.7,3.6,1.2,6.2,1.2C41.5,57.9,42.8,57.5,44.4,56.6z"/>
		<path class="st3" d="M43.4,57.1c0.6-1.2,0.8-2.8-0.7-5.2c0,0,0.3,2.3-0.4,2.8c0,0-1.2-0.5-0.8-3c0,0,0.6-2-0.5-3.4
			c0,0,0,1.6-0.8,2c0,0,0.9-2.8-1.1-3.9c0,0,1.4,2.4-1.2,5.7c0,0-1.2,1.2-0.6,3.9c0,0-0.9-1-0.6-2.7c0,0-0.7,2.1,0,3.8
			c1.4,0.5,3,0.7,5,0.8C41.5,57.9,42.3,57.7,43.4,57.1z"/>
	</g>
</g>
</svg>
